{
    "asset" : {
        "generator" : "Khronos glTF Blender I/O v1.6.16",
        "version" : "2.0"
    },
    "scene" : 0,
    "scenes" : [
        {
            "name" : "Scene",
            "nodes" : [
                0
            ]
        }
    ],
    "nodes" : [
        {
            "mesh" : 0,
            "name" : "logoobj",
            "rotation" : [
                0.7071068286895752,
                0,
                0,
                0.7071067094802856
            ]
        }
    ],
    "materials" : [
        {
            "doubleSided" : true,
            "name" : "FrontColor",
            "pbrMetallicRoughness" : {
                "metallicFactor" : 0
            }
        }
    ],
    "meshes" : [
        {
            "name" : "logoobj",
            "primitives" : [
                {
                    "attributes" : {
                        "POSITION" : 0,
                        "NORMAL" : 1,
                        "TEXCOORD_0" : 2
                    },
                    "indices" : 3,
                    "material" : 0
                }
            ]
        }
    ],
    "accessors" : [
        {
            "bufferView" : 0,
            "componentType" : 5126,
            "count" : 2816,
            "max" : [
                0.07791700214147568,
                0.009607000276446342,
                -0.005543000064790249
            ],
            "min" : [
                -0.07628300040960312,
                -0.006244000047445297,
                -0.09269300103187561
            ],
            "type" : "VEC3"
        },
        {
            "bufferView" : 1,
            "componentType" : 5126,
            "count" : 2816,
            "type" : "VEC3"
        },
        {
            "bufferView" : 2,
            "componentType" : 5126,
            "count" : 2816,
            "type" : "VEC2"
        },
        {
            "bufferView" : 3,
            "componentType" : 5123,
            "count" : 6324,
            "type" : "SCALAR"
        }
    ],
    "bufferViews" : [
        {
            "buffer" : 0,
            "byteLength" : 33792,
            "byteOffset" : 0
        },
        {
            "buffer" : 0,
            "byteLength" : 33792,
            "byteOffset" : 33792
        },
        {
            "buffer" : 0,
            "byteLength" : 22528,
            "byteOffset" : 67584
        },
        {
            "buffer" : 0,
            "byteLength" : 12648,
            "byteOffset" : 90112
        }
    ],
    "buffers" : [
        {
            "byteLength" : 102760,
            "uri" : "data:application/octet-stream;base64,"
        }
    ]
}
